<?xml version="1.0" standalone="no"?>
<!DOCTYPE svg PUBLIC "-//W3C//DTD SVG 1.1//EN" "http://www.w3.org/Graphics/SVG/1.1/DTD/svg11.dtd">
<svg t="1687156409230" class="icon" viewBox="0 0 1264 1024" version="1.1" 
    xmlns="http://www.w3.org/2000/svg" p-id="1691" 
    xmlns:xlink="http://www.w3.org/1999/xlink" width="246.875" height="200">
    <path d="M1152.965258 105.493792C1085.10481 36.700038 992.556889 0.301067 885.31691 0.301067c-84.118052 0-172.661786 22.850967-256.990585 66.174473C544.509339 23.724061 456.537632 1.17416 372.9615 1.17416c-107.270086 0-199.818007 36.368864-267.678455 105.072299C-63.525086 277.342698-20.894033 598.821782 200.390034 822.965984c122.353531 123.979291 278.366325 197.198727 427.966397 200.992168a6.563255 6.563255 0 0 0 0.752667 0h0.782774c149.600072-3.763334 305.612866-77.103197 427.966397-201.172808 221.253961-224.324842 263.91512-546.074886 95.106989-717.261445z m-137.497189 674.811032c-111.424807 112.990354-252.173517 179.797068-386.358971 183.409869-134.155348-3.612801-274.904057-70.359301-386.328864-183.229229C44.6482 579.764256 1.987041 296.34001 147.673245 148.726979c56.389804-57.112364 134.275774-87.30936 225.288255-87.30936 78.698851 0 162.365303 22.82086 241.997461 65.993833a29.775502 29.775502 0 0 0 32.063609-2.799921c78.488104-41.908493 160.799756-64.036899 238.29434-64.036899 90.982374 0 168.838238 30.196996 225.258148 87.369573 145.716311 147.763565 103.055151 431.428665-95.106989 632.360619z m32.24425-298.507691h-239.19754a29.865822 29.865822 0 0 0-26.734728 16.648992l-86.436266 174.106906-127.381345-410.564738a29.835716 29.835716 0 0 0-27.698142-21.10478c-14.240458-0.602134-24.356301 7.496562-28.842196 19.509126l-82.432078 221.404494H210.535984a29.986249 29.986249 0 0 0-29.895929 30.106676c0 16.618885 13.367364 30.106676 29.895929 30.106676h239.19754a29.956142 29.956142 0 0 0 27.999208-19.569339l59.129511-158.812715 123.527691 398.190894a29.865822 29.865822 0 0 0 55.275857 4.485895l111.334487-224.294735H1047.712319a29.986249 29.986249 0 0 0 29.895929-30.106676c0-16.618885-13.367364-30.106676-29.895929-30.106676" 
    fill="#fff" p-id="1692">
    </path>
</svg>