<?xml version="1.0" standalone="no"?><!DOCTYPE svg PUBLIC "-//W3C//DTD SVG 1.1//EN" "http://www.w3.org/Graphics/SVG/1.1/DTD/svg11.dtd"><svg t="1687113755128" class="icon" viewBox="0 0 1239 1024" version="1.1" xmlns="http://www.w3.org/2000/svg" p-id="5322" xmlns:xlink="http://www.w3.org/1999/xlink" width="241.9921875" height="200"><path d="M592.276211 217.411368V52.978526l-19.429053 4.769685c-2.883368 0.673684-6.817684 1.347368-9.701053 1.347368-12.961684 0-24.117895-10.186105-24.117894-22.420211 0-10.536421 7.194947-19.348211 18.351157-22.42021l35.624421-9.862737c10.428632-2.721684 18.351158-4.392421 25.896422-4.392421h0.727578c15.090526 0 27.324632 11.533474 27.324632 25.815579v191.595789c0 14.255158-12.234105 25.815579-27.324632 25.815579-15.117474 0-27.351579-11.560421-27.351578-25.815579zM1239.578947 754.903579v215.578947a26.947368 26.947368 0 0 1-26.947368 26.947369H26.947368a26.947368 26.947368 0 0 1-26.947368-26.947369v-377.263158c0-44.570947 36.271158-80.842105 80.842105-80.842105h296.421053v-80.842105c0-44.570947 36.271158-80.842105 80.842105-80.842105h323.368421c44.597895 0 80.842105 36.271158 80.842105 80.842105v242.526316h296.421053c44.597895 0 80.842105 36.271158 80.842105 80.842105z m-53.894736 0a26.947368 26.947368 0 0 0-26.947369-26.947368H835.368421a26.947368 26.947368 0 0 1-26.947368-26.947369v-269.473684a26.947368 26.947368 0 0 0-26.947369-26.947369H458.105263c-14.848 0-26.947368 12.072421-26.947368 26.947369v107.789474a26.947368 26.947368 0 0 1-26.947369 26.947368H80.842105c-14.848 0-26.947368 12.072421-26.947368 26.947368v350.31579h1131.789474v-188.631579z" fill="#fff" p-id="5323" ></path></svg>