<svg xmlns="http://www.w3.org/2000/svg" viewBox="0 0 396.45 289.09"><defs><style>.cls-1{fill:#c3960a;}</style></defs><title>rank_1</title>
    <g id="レイヤー_2" data-name="レイヤー 2">
    <g id="レイヤー_1-2" data-name="レイヤー 1">
    <path d="M86.63,289.09a33.89,33.89,0,0,1-32.44-23.75L1.58,99A34,34,0,0,1,52.31,60.11L114.81,100l55.83-84.7a34,34,0,0,1,57.09.43l53.78,84.35,62.63-40A34,34,0,0,1,394.87,99l-52.62,166.3a33.87,33.87,0,0,1-32.43,23.75Z"/>
    <path class="cls-1" d="M359.39,84l-81.76,52.18a5.67,5.67,0,0,1-7.83-1.73L203.83,31a5.67,5.67,0,0,0-9.52-.07L126.18,134.26a5.67,5.67,0,0,1-7.78,1.66L37.06,84a5.67,5.67,0,0,0-8.45,6.49l52.61,166.3a5.67,5.67,0,0,0,5.41,4H309.82a5.68,5.68,0,0,0,5.41-4l52.61-166.3A5.67,5.67,0,0,0,359.39,84Z"/>
    <path d="M189.41,236.84l-1.57-1.57v-80h-1.57l-12.54,12.55h-7.84l-1.57-1.57V150.6l22-21.95,3.14-1.57h18.82l1.56,1.57V235.27l-1.56,1.57Z"/></g></g>
</svg>