<svg xmlns="http://www.w3.org/2000/svg" viewBox="0 0 396.45 289.09"><defs><style>.cls-1{fill:#a53c00;}</style></defs><title>rank_3</title><g id="レイヤー_2" data-name="レイヤー 2"><g id="レイヤー_1-2" data-name="レイヤー 1"><path d="M86.63,289.09A33.87,33.87,0,0,1,54.2,265.34L1.58,99A34,34,0,0,1,52.31,60.11L114.81,100l55.83-84.7a34,34,0,0,1,57.09.43l53.78,84.35,62.63-40a34,34,0,0,1,50.73,38.94L342.25,265.34a33.88,33.88,0,0,1-32.43,23.75Z"/><path class="cls-1" d="M359.39,84l-81.76,52.18a5.67,5.67,0,0,1-7.83-1.73L203.82,31a5.66,5.66,0,0,0-9.51-.07L126.18,134.26a5.67,5.67,0,0,1-7.78,1.66L37.06,84a5.67,5.67,0,0,0-8.45,6.49l52.61,166.3a5.67,5.67,0,0,0,5.41,4H309.82a5.68,5.68,0,0,0,5.41-4l52.61-166.3A5.67,5.67,0,0,0,359.39,84Z"/><path d="M195.87,238.4c-25.08,0-37.63-15.67-37.63-31.36l1.57-1.56h18.82l1.56,1.56c0,6.28,4.71,12.55,15.68,12.55,12.55,0,18.82-7.84,18.82-18.82,0-12.54-6.27-18.81-15.68-18.81-6.27,0-9.41,3.13-9.41,3.13h-7.84l-1.57-1.56V169.41l22-21.95v-1.57H164.51L163,144.33V128.65l1.56-1.57H228.8l1.57,1.57v15.68l-1.57,3.13-20.38,18.82v1.57c14.11,0,28.22,12.54,28.22,32.92S222.53,238.4,195.87,238.4Z"/></g></g></svg>