<svg xmlns="http://www.w3.org/2000/svg" viewBox="0 0 396.45 289.09"><defs><style>.cls-1{fill:#c8c8c8;}</style></defs><title>rank_2</title><g id="レイヤー_2" data-name="レイヤー 2"><g id="レイヤー_1-2" data-name="レイヤー 1"><path d="M86.63,289.09a33.89,33.89,0,0,1-32.44-23.75L1.58,99A34,34,0,0,1,52.31,60.11L114.81,100l55.83-84.7a34,34,0,0,1,57.09.43l53.78,84.35,62.63-40a34,34,0,0,1,50.73,38.94L342.25,265.34a33.88,33.88,0,0,1-32.43,23.75Z"/><path class="cls-1" d="M359.39,84l-81.76,52.18a5.67,5.67,0,0,1-7.83-1.73L203.83,31a5.67,5.67,0,0,0-9.52-.07L126.18,134.26a5.67,5.67,0,0,1-7.78,1.66L37.06,84a5.67,5.67,0,0,0-8.45,6.49l52.61,166.3a5.67,5.67,0,0,0,5.41,4H309.82a5.68,5.68,0,0,0,5.41-4l52.61-166.3A5.67,5.67,0,0,0,359.39,84Z"/><path d="M235.07,236.84H161.38l-1.57-1.57V218l1.57-3.14,28.22-23.51c18.82-15.68,22-22,22-31.36s-4.7-15.68-14.11-15.68c-12.54,0-15.68,6.27-15.68,15.68l-1.57,1.56H161.38L159.81,160c0-17.25,9.41-34.5,37.63-34.5,23.52,0,36.07,15.68,36.07,32.93s-7.84,26.65-26.66,42.33L188,216.45V218h47l1.57,1.57v15.68Z"/></g></g></svg>